<?xml version="1.0" encoding="utf-8"?>
<!-- Generator: Adobe Illustrator 21.1.0, SVG Export Plug-In . SVG Version: 6.00 Build 0)  -->
<svg version="1.1" id="Layer_1" xmlns="http://www.w3.org/2000/svg" xmlns:xlink="http://www.w3.org/1999/xlink" x="0px" y="0px"
	 viewBox="0 0 200 200" style="enable-background:new 0 0 200 200;" xml:space="preserve">
<style type="text/css">
	.st0{fill:#C39E7E;}
	.st1{fill:#FFFFFF;}
</style>
<title>owl-house-logo-favicon</title>
<g>
	<path class="st0" d="M100,180.3l-17.3-6.9c-1-0.4-4.6-1.9-9.8-4.5c-6.8-3.4-13.3-7.3-19.5-11.7c-5.6-4-10.9-8.5-15.7-13.5
		c-3.3-3.4-6.4-7.1-9.1-11c-3.7-5.3-6.7-11-9-17c-1.4-3.7-2.5-7.5-3.2-11.3C15.5,100,15,95.5,15,91c0-0.3,0-0.6,0-0.9
		c0.1-7.2,1.3-14.3,3.6-21.1c6.5-19.5,24.7-31.8,44.1-31.9c4.9,0,9.8,0.8,14.7,2.4c9,3,16.9,8.7,22.6,16.3
		c9.1-12.2,23.1-18.6,37.3-18.6c9.7,0,19.5,3,27.9,9.3c7.6,5.7,13.2,13.5,16.2,22.5c2.3,6.8,3.5,13.9,3.6,21.1c0,0.3,0,0.6,0,1
		c0,4.3-0.4,8.6-1.2,12.8c-0.7,3.9-1.8,7.8-3.2,11.5c-2.4,6.5-5.7,12.6-9.8,18.3c-2.3,3.2-4.8,6.2-7.5,9.1c-3.1,3.3-6.5,6.5-10,9.4
		c-4,3.3-8.2,6.3-12.5,9.1c-4.5,2.8-9.1,5.4-13.8,7.8c-5.1,2.6-8.7,4-9.6,4.4L100,180.3 M100.3,0.3c-25.7,0-51.5,9.9-71,29.6
		c-38.6,39-38.6,101.8,0,140.8c19.5,19.3,45,29,70.4,29c25.7,0,51.5-9.9,71-29.6c38.6-39,38.6-101.8,0-140.8
		C151.2,10,125.8,0.3,100.3,0.3"/>
	<path class="st1" d="M15,90.1c0.1-7.2,1.3-14.3,3.6-21.1c8.1-24.4,34.5-37.6,58.8-29.5c9,3,16.9,8.7,22.6,16.3
		c15.4-20.6,44.6-24.7,65.1-9.3c7.6,5.7,13.2,13.5,16.2,22.5c2.3,6.8,3.5,13.9,3.6,21.1c0,0.3,0,0.6,0,1c0,4.3-0.4,8.6-1.2,12.8
		c-0.7,3.9-1.8,7.8-3.2,11.5c-2.4,6.5-5.7,12.6-9.8,18.3c-2.3,3.2-4.8,6.2-7.5,9.1c-3.1,3.3-6.5,6.5-10,9.4c-4,3.3-8.2,6.3-12.5,9.1
		c-4.5,2.8-9.1,5.4-13.8,7.8c-5.1,2.6-8.7,4-9.6,4.4l-17.3,6.9l-17.3-6.9c-1-0.4-4.6-1.9-9.8-4.5c-6.8-3.4-13.3-7.3-19.5-11.7
		c-5.6-4-10.9-8.5-15.7-13.5c-3.3-3.4-6.4-7.1-9.1-11c-3.7-5.3-6.7-11-9-17c-1.4-3.7-2.5-7.5-3.2-11.3C15.5,100,15,95.5,15,91
		C15,90.7,15,90.4,15,90.1"/>
	<path class="st0" d="M100,103c-1.7,3.9-3.9,7.5-6.6,10.7c-2.2,2.6-4.7,4.9-7.4,6.9v0.3l11.9,23.8c0.4,0.8,1.2,1.3,2.1,1.3
		c0.3,0,0.7-0.1,1-0.2c0.5-0.2,0.9-0.6,1.1-1.1l11.9-23.8v-0.3c-2.7-2-5.1-4.3-7.3-6.9v-0.1C104,110.4,101.7,106.9,100,103"/>
	<path class="st0" d="M139.6,62.7c-6.4,0-11.6,5.2-11.6,11.6v23.3c0,6.4,5.2,11.6,11.6,11.6h0c6.4,0,11.6-5.2,11.6-11.6V74.4
		C151.2,67.9,146,62.7,139.6,62.7"/>
	<path class="st0" d="M60.4,62.7c-6.4,0-11.6,5.2-11.6,11.6v23.3c0,6.4,5.2,11.6,11.6,11.6h0c0,0,0,0,0,0c6.4,0,11.6-5.2,11.6-11.6
		v0V74.4C72.1,67.9,66.9,62.7,60.4,62.7"/>
</g>
</svg>
