<svg xmlns="http://www.w3.org/2000/svg" viewBox="0 0 1122 200"><defs><style>.cls-1{isolation:isolate;}.cls-2,.cls-4{opacity:0.7;}.cls-3{fill:#aa7547;}.cls-4{mix-blend-mode:multiply;}</style></defs><title>owl-house-logo</title><g class="cls-1"><g id="Layer_1" data-name="Layer 1"><g class="cls-2"><path class="cls-3" d="M254.27,101.5c0-26.63,19.6-47.2,46-47.2,25.94,0,45.4,20.7,45.4,46.92,0,26.63-19.6,47.2-46,47.2C273.73,148.42,254.27,127.71,254.27,101.5Zm83.35,0c0-22.36-15.46-40-37.67-40S262.28,79,262.28,101.22s15.46,40,37.67,40S337.63,123.71,337.63,101.5Z"/><path class="cls-3" d="M363.57,95.15H355V88.8h25.39v6.07h-9.66l11.73,40.57,17.25-39.88h2.76l17.25,39.74,11.73-40.43h-9.94V88.8h25.39v6.35h-8.69l-16.56,54.1h-2.76L401,107.84,383,149.24h-2.76Z"/><path class="cls-3" d="M452.3,140.41h10.21V52.09H452.3V45.74h17.25v94.67H479.9v6.35H452.3Z"/><path class="cls-3" d="M523.65,139.86h12.14v-77H523.65V56H555.8v6.9H543.66V96.53h54.1V62.85H585.61V56h32.15v6.9H605.62v77h12.14v6.9H585.61v-6.9h12.14V103.56h-54.1v36.29H555.8v6.9H523.65Z"/><path class="cls-3" d="M628.8,117.78c0-16.7,11.87-30.08,29.39-30.08s29.39,13.39,29.39,30.08-11.87,30.08-29.39,30.08S628.8,134.48,628.8,117.78Zm51.34,0c0-13.8-9-23.74-21.94-23.74s-21.94,9.94-21.94,23.74,9,23.74,21.94,23.74S680.14,131.72,680.14,117.78Z"/><path class="cls-3" d="M709.26,140.13a24.89,24.89,0,0,1-2.62-12v-33H697V88.8h16.7v38.36a19.4,19.4,0,0,0,1.79,8.69c1.93,3.73,5.38,5.38,10.63,5.38,8.28,0,15.18-5.52,21-11.87V95.15h-9.66V88.8h16.7v51.61h9.66v6.35H747.35V135.3c-5.38,6.9-14.21,12.56-22.36,12.56S712,145,709.26,140.13Z"/><path class="cls-3" d="M813.31,105.22a5.33,5.33,0,0,1-5.52-5.38,6.4,6.4,0,0,1,1-3.59c-2.21-1.52-6.21-2.48-11.18-2.48-8.83,0-14.08,4.83-14.08,9.66,0,5.8,6.07,7.59,16,10.07,10.63,2.62,21.39,5.8,21.39,17.53,0,10.49-10.49,16.84-22.63,16.84-8.28,0-16.28-2.48-20.29-6.49a9.85,9.85,0,0,1-3.17-7c0-3,2.07-5.66,5.11-5.66a5,5,0,0,1,5.38,5.11,7.53,7.53,0,0,1-1.24,4c1.66,1.79,6.9,4,14.08,4,9,0,15.87-4,15.87-10.35s-6.76-8.56-14.77-10.49c-13.11-3.17-22.77-6.21-22.77-17.25,0-8.69,8.56-16,21.25-16,8.14,0,14.35,2.35,17.66,5.66a8.76,8.76,0,0,1,2.9,6.35C818.28,103,816.21,105.22,813.31,105.22Z"/><path class="cls-3" d="M840.22,119.43c1.1,14.63,9.94,21.94,23.87,21.94,8,0,13.11-2.48,20-6.49l-.69,7.18a38,38,0,0,1-20.29,5.8c-18.35,0-30.36-12.42-30.36-29.95,0-15.87,10.49-30.22,28-30.22,16.7,0,25.81,13.11,25.81,27.19a19.69,19.69,0,0,1-.41,4.55Zm.14-6.21h39.05C878.58,101.91,872.24,94,860.09,94,850,94,841.74,101.5,840.36,113.22Z"/><path class="cls-3" d="M932.68,102c0-28.43,21.8-47.75,45.4-47.75,18.22,0,33.4,11.73,33.4,22.63,0,4.42-3,7.87-7.18,7.87a6.18,6.18,0,0,1-1.66-12.14c-2.48-4.69-11.45-11.32-24.56-11.32-22.08,0-37.4,19.46-37.4,40.57,0,20,15.59,39.47,38,39.47,11,0,20.29-3.86,29-11.59l4.28,5.66a48.46,48.46,0,0,1-33.26,13C950.62,148.42,932.68,125.37,932.68,102Z"/><path class="cls-3" d="M1023.76,117.78c0-16.7,11.87-30.08,29.39-30.08s29.39,13.39,29.39,30.08-11.87,30.08-29.39,30.08S1023.76,134.48,1023.76,117.78Zm51.34,0c0-13.8-9-23.74-21.94-23.74s-21.94,9.94-21.94,23.74,9,23.74,21.94,23.74S1075.09,131.72,1075.09,117.78Z"/><path class="cls-3" d="M1091.93,140.41a7.18,7.18,0,1,1,7.18,7.45A7.19,7.19,0,0,1,1091.93,140.41Z"/></g><g class="cls-4"><path class="cls-3" d="M101.56,145.59l8.88-17.76v-.24a32.57,32.57,0,0,1-5.45-5.13l0,0a32,32,0,0,1-4.95-8,32,32,0,0,1-4.95,8h0l0,0h0l0,0a32.55,32.55,0,0,1-5.45,5.13v.24l8.88,17.76A1.74,1.74,0,0,0,101.56,145.59Z"/><path class="cls-3" d="M170.71,29.29A100,100,0,0,0,29.29,170.71,100,100,0,0,0,170.71,29.29ZM36.49,104.8A52.29,52.29,0,0,1,39.18,89h0A34.78,34.78,0,0,1,100,79.14,34.78,34.78,0,0,1,160.82,89a52.29,52.29,0,0,1,2.69,15.8c0,.24,0,.47,0,.71a51.45,51.45,0,0,1-.89,9.54,53,53,0,0,1-2.39,8.61,58.08,58.08,0,0,1-7.32,13.65,67.67,67.67,0,0,1-5.6,6.79,79.46,79.46,0,0,1-7.49,7,97.24,97.24,0,0,1-9.38,6.8,115.36,115.36,0,0,1-10.33,5.87c-3.83,1.92-6.49,3-7.2,3.3L100,172.24l-12.92-5.17c-.73-.29-3.43-1.39-7.31-3.35A111.8,111.8,0,0,1,65.2,155a85,85,0,0,1-11.75-10.05,67.84,67.84,0,0,1-6.8-8.21A57.93,57.93,0,0,1,39.88,124a53.08,53.08,0,0,1-2.42-8.45,51.5,51.5,0,0,1-1-10C36.47,105.28,36.48,105,36.49,104.8Zm134.82,0a71.3,71.3,0,0,0-142.61,0V157A90.92,90.92,0,0,1,10.55,118.4q-.46-2.23-.8-4.5t-.58-4.57a92.69,92.69,0,0,1,0-18.67q.23-2.3.58-4.57t.8-4.5A91.34,91.34,0,0,1,97.64,8.73l2.36,0A91.3,91.3,0,0,1,171.3,157Z"/><path class="cls-3" d="M129.56,119.13a8.7,8.7,0,0,0,8.7-8.7V93a8.7,8.7,0,0,0-17.39,0v17.39A8.69,8.69,0,0,0,129.56,119.13Z"/><path class="cls-3" d="M70.44,119.13a8.7,8.7,0,0,0,8.7-8.7V93a8.7,8.7,0,0,0-17.39,0v17.39A8.69,8.69,0,0,0,70.44,119.13Z"/></g></g></g></svg>