<svg xmlns="http://www.w3.org/2000/svg" viewBox="0 0 1122 200"><defs><style>.cls-1{isolation:isolate;}.cls-10,.cls-2{opacity:0.7;}.cls-2{font-size:138px;font-family:Archer-Book, Archer;}.cls-11,.cls-2{fill:#aa7547;}.cls-3{letter-spacing:0em;}.cls-4{letter-spacing:-0.02em;}.cls-5{letter-spacing:-0.01em;}.cls-6{letter-spacing:0em;}.cls-7{letter-spacing:0em;}.cls-8{letter-spacing:-0.03em;}.cls-9{letter-spacing:0em;}.cls-10{mix-blend-mode:multiply;}</style></defs><title>owl-house-logo</title><g class="cls-1"><g id="Layer_1" data-name="Layer 1"><text class="cls-2" transform="translate(245.99 146.76)">O<tspan class="cls-3" x="107.92" y="0">w</tspan><tspan x="201.34" y="0">l </tspan><tspan class="cls-4" x="270.48" y="0">H</tspan><tspan class="cls-5" x="376.19" y="0">o</tspan><tspan x="446.84" y="0">u</tspan><tspan class="cls-6" x="522.33" y="0">s</tspan><tspan class="cls-7" x="580.7" y="0">e </tspan><tspan class="cls-8" x="678.41" y="0">C</tspan><tspan class="cls-4" x="771.14" y="0">o</tspan><tspan class="cls-9" x="840.42" y="0">.</tspan></text><g class="cls-10"><path class="cls-11" d="M101.56,145.59l8.88-17.76v-.24a32.57,32.57,0,0,1-5.45-5.13l0,0a32,32,0,0,1-4.95-8,32,32,0,0,1-4.95,8h0l0,0h0l0,0a32.55,32.55,0,0,1-5.45,5.13v.24l8.88,17.76A1.74,1.74,0,0,0,101.56,145.59Z"/><path class="cls-11" d="M170.71,29.29A100,100,0,0,0,29.29,170.71,100,100,0,0,0,170.71,29.29ZM36.49,104.8A52.29,52.29,0,0,1,39.18,89h0A34.78,34.78,0,0,1,100,79.14,34.78,34.78,0,0,1,160.82,89a52.29,52.29,0,0,1,2.69,15.8c0,.24,0,.47,0,.71a51.45,51.45,0,0,1-.89,9.54,53,53,0,0,1-2.39,8.61,58.08,58.08,0,0,1-7.32,13.65,67.67,67.67,0,0,1-5.6,6.79,79.46,79.46,0,0,1-7.49,7,97.24,97.24,0,0,1-9.38,6.8,115.36,115.36,0,0,1-10.33,5.87c-3.83,1.92-6.49,3-7.2,3.3L100,172.24l-12.92-5.17c-.73-.29-3.43-1.39-7.31-3.35A111.8,111.8,0,0,1,65.2,155a85,85,0,0,1-11.75-10.05,67.84,67.84,0,0,1-6.8-8.21A57.93,57.93,0,0,1,39.88,124a53.08,53.08,0,0,1-2.42-8.45,51.5,51.5,0,0,1-1-10C36.47,105.28,36.48,105,36.49,104.8Zm134.82,0a71.3,71.3,0,0,0-142.61,0V157A90.92,90.92,0,0,1,10.55,118.4q-.46-2.23-.8-4.5t-.58-4.57a92.69,92.69,0,0,1,0-18.67q.23-2.3.58-4.57t.8-4.5A91.34,91.34,0,0,1,97.64,8.73l2.36,0A91.3,91.3,0,0,1,171.3,157Z"/><path class="cls-11" d="M129.56,119.13a8.7,8.7,0,0,0,8.7-8.7V93a8.7,8.7,0,0,0-17.39,0v17.39A8.69,8.69,0,0,0,129.56,119.13Z"/><path class="cls-11" d="M70.44,119.13a8.7,8.7,0,0,0,8.7-8.7V93a8.7,8.7,0,0,0-17.39,0v17.39A8.69,8.69,0,0,0,70.44,119.13Z"/></g></g></g></svg>